# xmcd
#
# Track frame offsets:
#	150
#	13512
#	25732
#	49432
#	60037
#	73605
#	85415
#	101800
#	113742
#	128542
#	143427
#	157042
#	178622
#
# Disc length: 2563 seconds
# Revision: 2
# Processed by: cddbd v1.5.2PL0 Copyright (c) Steve Scherf et al.
# Submitted via: dBpowerAMP V12.0
#
DISCID=a20a010d
DTITLE=Various Artist - Ultimate Super Hits: Country 40
DYEAR=2002
DGENRE=Country
TTITLE0=Tammy Wynette - We're Gonna Hold On
TTITLE1=Charlie Rich - The Most Beautiful Girl
TTITLE2=David Allan Coe - You Never Even Called Me by My Name
TTITLE3=Willie Nelson - Blue Eyes Crying in the Rain
TTITLE4=Mickey Gilley - Don't the Girls All Get Prettier at Closing Time
TTITLE5=Johnny Paycheck - Take This Job and Shove It
TTITLE6=Charlie Daniels Band, The - The Devil Went Down to Georgia
TTITLE7=Larry Gatlin and the Gatlin Brothers Band - All the Gold in California
TTITLE8=George Jones - He Stopped Loving Her Today
TTITLE9=Rosanne Cash - Seven Year Ache
TTITLE10=Ricky Skaggs - Crying My Heart Out Over You
TTITLE11=Willie Nelson - Pancho and Lefty
TTITLE12=Willie Nelson - Highwayman
EXTD=
EXTT0=
EXTT1=
EXTT2=
EXTT3=
EXTT4=
EXTT5=
EXTT6=
EXTT7=
EXTT8=
EXTT9=
EXTT10=
EXTT11=
EXTT12=
PLAYORDER=
